<svg width="26" height="26" viewBox="0 0 26 26" fill="none" xmlns="http://www.w3.org/2000/svg">
<path d="M13.0024 7.4449C9.92824 7.4449 7.4486 9.92509 7.4486 13C7.4486 16.0748 9.92824 18.555 13.0024 18.555C16.0766 18.555 18.5562 16.0748 18.5562 13C18.5562 9.92509 16.0766 7.4449 13.0024 7.4449ZM13.0024 16.6115C11.0158 16.6115 9.39171 14.9919 9.39171 13C9.39171 11.008 11.011 9.38845 13.0024 9.38845C14.9939 9.38845 16.6131 11.008 16.6131 13C16.6131 14.9919 14.989 16.6115 13.0024 16.6115ZM20.0788 7.21767C20.0788 7.93804 19.4988 8.51337 18.7834 8.51337C18.0632 8.51337 17.488 7.9332 17.488 7.21767C17.488 6.50214 18.068 5.92197 18.7834 5.92197C19.4988 5.92197 20.0788 6.50214 20.0788 7.21767ZM23.7572 8.5327C23.6751 6.79705 23.2787 5.25962 22.0075 3.99293C20.7411 2.72624 19.2039 2.3298 17.4686 2.24277C15.6803 2.14124 10.3198 2.14124 8.53133 2.24277C6.8009 2.32497 5.26381 2.7214 3.99256 3.9881C2.72132 5.25479 2.32981 6.79222 2.24279 8.52787C2.1413 10.3167 2.1413 15.6784 2.24279 17.4672C2.32496 19.2029 2.72132 20.7403 3.99256 22.007C5.26381 23.2736 6.79605 23.6701 8.53133 23.7571C10.3198 23.8586 15.6803 23.8586 17.4686 23.7571C19.2039 23.6749 20.7411 23.2785 22.0075 22.007C23.2738 20.7403 23.6702 19.2029 23.7572 17.4672C23.8587 15.6784 23.8587 10.3215 23.7572 8.5327ZM21.4468 19.3865C21.0698 20.3342 20.3398 21.0642 19.3877 21.4462C17.9617 22.0118 14.5782 21.8812 13.0024 21.8812C11.4267 21.8812 8.0383 22.007 6.61722 21.4462C5.66983 21.0691 4.93996 20.339 4.55809 19.3865C3.99256 17.9603 4.12307 14.5761 4.12307 13C4.12307 11.4238 3.9974 8.03473 4.55809 6.61333C4.93511 5.66574 5.66499 4.93569 6.61722 4.55375C8.04313 3.9881 11.4267 4.11863 13.0024 4.11863C14.5782 4.11863 17.9665 3.99293 19.3877 4.55375C20.335 4.93086 21.0649 5.6609 21.4468 6.61333C22.0123 8.03957 21.8817 11.4238 21.8817 13C21.8817 14.5761 22.0123 17.9652 21.4468 19.3865Z" fill="black"/>
</svg>
