<svg width="60" height="1849" viewBox="0 0 60 1849" fill="none" xmlns="http://www.w3.org/2000/svg">
<path d="M32.9398 2.16901C31.3777 0.606912 28.845 0.606912 27.2829 2.16901L1.82706 27.6249C0.26496 29.187 0.26496 31.7196 1.82706 33.2817C3.38915 34.8438 5.92181 34.8438 7.48391 33.2817L30.1113 10.6543L52.7387 33.2817C54.3008 34.8438 56.8335 34.8438 58.3956 33.2817C59.9577 31.7196 59.9577 29.187 58.3956 27.6249L32.9398 2.16901ZM26.1113 1844C26.1113 1846.21 27.9022 1848 30.1113 1848C32.3205 1848 34.1113 1846.21 34.1113 1844H26.1113ZM26.1113 4.99744L26.1113 1844H34.1113L34.1113 4.99744L26.1113 4.99744Z" fill="black"/>
</svg>
