<svg width="180" height="16" viewBox="0 0 180 16" fill="none" xmlns="http://www.w3.org/2000/svg">
<path d="M1.49012e-08 14.7L1.2 14.4V1.6L1.49012e-08 1.3V0.999999H10.7V4.6H10.1C9.84667 4.4 9.62667 4.14667 9.44 3.84C9.01333 3.12 8.8 2.34 8.8 1.5H4.5V7.8H6.8C6.89333 7.29333 7.06667 6.82 7.32 6.38C7.42667 6.18 7.55333 5.98667 7.7 5.8H8.3V10.3H7.7C7.55333 10.1133 7.42667 9.92 7.32 9.72C7.06667 9.28 6.89333 8.80667 6.8 8.3H4.5V14.4L5.7 14.7V15H1.49012e-08V14.7ZM16.5063 15.3C14.8529 15.3 13.5529 14.8333 12.6063 13.9C11.6729 12.9533 11.2063 11.6533 11.2063 10C11.2063 8.34667 11.6729 7.05333 12.6063 6.12C13.5529 5.17333 14.8529 4.7 16.5063 4.7C18.1596 4.7 19.4529 5.17333 20.3863 6.12C21.3329 7.05333 21.8063 8.34667 21.8063 10C21.8063 11.6533 21.3329 12.9533 20.3863 13.9C19.4529 14.8333 18.1596 15.3 16.5063 15.3ZM16.5063 14.9C17.0396 14.9 17.4863 14.5267 17.8463 13.78C18.2196 13.0333 18.4063 11.7733 18.4063 10C18.4063 8.22667 18.2196 6.96667 17.8463 6.22C17.4863 5.47333 17.0396 5.1 16.5063 5.1C15.9729 5.1 15.5196 5.47333 15.1463 6.22C14.7863 6.96667 14.6063 8.22667 14.6063 10C14.6063 11.7733 14.7863 13.0333 15.1463 13.78C15.5196 14.5267 15.9729 14.9 16.5063 14.9ZM23.4133 14.7L24.6133 14.4V5.6L23.4133 5.3V5H25.2133C25.9999 5 26.6199 5.25333 27.0733 5.76C27.2466 5.96 27.3933 6.20667 27.5133 6.5C27.6999 6.15333 27.9199 5.85333 28.1733 5.6C28.7733 5 29.5199 4.7 30.4133 4.7C31.1599 4.7 31.8266 4.86 32.4133 5.18C33.0133 5.48667 33.4799 5.89333 33.8133 6.4C34.1466 6.90667 34.3133 7.44 34.3133 8V14.4L35.5133 14.7V15H32.9133C31.7133 15 31.1133 14.4 31.1133 13.2V8C31.1133 7.16 30.9599 6.52 30.6533 6.08C30.3599 5.62667 30.0133 5.4 29.6133 5.4C29.1066 5.4 28.6533 5.66667 28.2533 6.2C28.0799 6.42667 27.9333 6.69333 27.8133 7V14.4L29.0133 14.7V15H23.4133V14.7ZM40.8141 15.3C40.0274 15.3 39.3274 15.1 38.7141 14.7C38.1007 14.2867 37.6141 13.6867 37.2541 12.9C36.8941 12.1 36.7141 11.1333 36.7141 10C36.7141 8.29333 37.1074 6.98667 37.8941 6.08C38.6941 5.16 39.7674 4.7 41.1141 4.7C41.7541 4.7 42.3141 4.83333 42.7941 5.1C42.9941 5.19333 43.2007 5.32667 43.4141 5.5V1.6L42.2141 1.3V0.999999H44.8141C46.0141 0.999999 46.6141 1.6 46.6141 2.8V14.4L47.8141 14.7V15H46.0141C45.2141 15 44.5941 14.7533 44.1541 14.26C43.9674 14.06 43.8207 13.8067 43.7141 13.5C43.5407 13.8333 43.3207 14.1333 43.0541 14.4C42.4541 15 41.7074 15.3 40.8141 15.3ZM41.6141 14.6C42.1074 14.6 42.5541 14.3333 42.9541 13.8C43.1007 13.6 43.2541 13.3333 43.4141 13V6.1C43.2674 5.95333 43.1141 5.82 42.9541 5.7C42.5941 5.43333 42.2474 5.3 41.9141 5.3C41.3407 5.3 40.8941 5.63333 40.5741 6.3C40.2674 6.96667 40.1141 8.2 40.1141 10C40.1141 11.72 40.2541 12.92 40.5341 13.6C40.8274 14.2667 41.1874 14.6 41.6141 14.6ZM53.0164 15.3C51.8297 15.3 50.9164 15.0467 50.2764 14.54C49.6364 14.0333 49.3164 13.3867 49.3164 12.6C49.3164 12.08 49.4297 11.5667 49.6564 11.06C49.7497 10.82 49.8697 10.6 50.0164 10.4C50.5631 10.2667 51.1564 10.1467 51.7964 10.04C53.2364 9.8 54.5097 9.65333 55.6164 9.6V9C55.6164 7.52 55.4364 6.5 55.0764 5.94C54.7164 5.38 54.1631 5.1 53.4164 5.1C53.1364 5.1 52.8964 5.13333 52.6964 5.2L52.4164 5.3V8.3L52.1564 8.36C51.9431 8.38667 51.7631 8.4 51.6164 8.4C51.1631 8.4 50.7964 8.26667 50.5164 8C50.2497 7.72 50.1164 7.35333 50.1164 6.9C50.1164 6.28667 50.4231 5.76667 51.0364 5.34C51.6631 4.91333 52.5897 4.7 53.8164 4.7C54.8564 4.7 55.7497 4.88667 56.4964 5.26C57.2564 5.62 57.8297 6.12667 58.2164 6.78C58.6164 7.42 58.8164 8.16 58.8164 9V14.4L60.0164 14.7V15H58.2164C57.4164 15 56.7964 14.7533 56.3564 14.26C56.1697 14.06 56.0231 13.8067 55.9164 13.5C55.7297 13.8333 55.5097 14.1333 55.2564 14.4C54.6564 15 53.9097 15.3 53.0164 15.3ZM53.8164 14.6C54.3097 14.6 54.7564 14.3333 55.1564 13.8C55.3031 13.6 55.4564 13.3333 55.6164 13V10.1C55.0031 10.1 54.4164 10.1333 53.8564 10.2C53.4431 10.2533 53.1631 10.2867 53.0164 10.3C52.9497 10.4467 52.8831 10.6467 52.8164 10.9C52.6831 11.4067 52.6164 11.9067 52.6164 12.4C52.6164 13.1467 52.7297 13.7 52.9564 14.06C53.1831 14.42 53.4697 14.6 53.8164 14.6ZM66.4258 15.3C65.5458 15.3 64.7791 15.14 64.1258 14.82C63.4858 14.5 62.9924 14.06 62.6458 13.5C62.2991 12.94 62.1258 12.3067 62.1258 11.6V5.5H60.7258V5H62.1258V4C62.1258 2.8 62.7258 2.2 63.9258 2.2H65.3258V5H68.1258V5.5H65.3258V11.6C65.3258 12.8267 65.4524 13.6667 65.7058 14.12C65.9591 14.5733 66.3324 14.8 66.8258 14.8C67.3058 14.8 67.7258 14.5667 68.0858 14.1C68.4458 13.6333 68.6258 13 68.6258 12.2H69.1258C69.1258 13.1867 68.8791 13.9533 68.3858 14.5C67.8924 15.0333 67.2391 15.3 66.4258 15.3ZM70.2297 14.7L71.4297 14.4V5.6L70.2297 5.3V5H72.8297C74.0297 5 74.6297 5.6 74.6297 6.8V14.4L75.8297 14.7V15H70.2297V14.7ZM72.8297 3.8C72.4297 3.8 72.0964 3.66667 71.8297 3.4C71.563 3.13333 71.4297 2.8 71.4297 2.4C71.4297 2 71.563 1.66667 71.8297 1.4C72.0964 1.13333 72.4297 0.999999 72.8297 0.999999C73.2297 0.999999 73.563 1.13333 73.8297 1.4C74.0964 1.66667 74.2297 2 74.2297 2.4C74.2297 2.8 74.0964 3.13333 73.8297 3.4C73.563 3.66667 73.2297 3.8 72.8297 3.8ZM82.3266 15.3C80.6732 15.3 79.3732 14.8333 78.4266 13.9C77.4932 12.9533 77.0266 11.6533 77.0266 10C77.0266 8.34667 77.4932 7.05333 78.4266 6.12C79.3732 5.17333 80.6732 4.7 82.3266 4.7C83.9799 4.7 85.2732 5.17333 86.2066 6.12C87.1532 7.05333 87.6266 8.34667 87.6266 10C87.6266 11.6533 87.1532 12.9533 86.2066 13.9C85.2732 14.8333 83.9799 15.3 82.3266 15.3ZM82.3266 14.9C82.8599 14.9 83.3066 14.5267 83.6666 13.78C84.0399 13.0333 84.2266 11.7733 84.2266 10C84.2266 8.22667 84.0399 6.96667 83.6666 6.22C83.3066 5.47333 82.8599 5.1 82.3266 5.1C81.7932 5.1 81.3399 5.47333 80.9666 6.22C80.6066 6.96667 80.4266 8.22667 80.4266 10C80.4266 11.7733 80.6066 13.0333 80.9666 13.78C81.3399 14.5267 81.7932 14.9 82.3266 14.9ZM89.2336 14.7L90.4336 14.4V5.6L89.2336 5.3V5H91.0336C91.8203 5 92.4403 5.25333 92.8936 5.76C93.0669 5.96 93.2136 6.20667 93.3336 6.5C93.5203 6.15333 93.7403 5.85333 93.9936 5.6C94.5936 5 95.3403 4.7 96.2336 4.7C96.9803 4.7 97.6469 4.86 98.2336 5.18C98.8336 5.48667 99.3003 5.89333 99.6336 6.4C99.9669 6.90667 100.134 7.44 100.134 8V14.4L101.334 14.7V15H98.7336C97.5336 15 96.9336 14.4 96.9336 13.2V8C96.9336 7.16 96.7803 6.52 96.4736 6.08C96.1803 5.62667 95.8336 5.4 95.4336 5.4C94.9269 5.4 94.4736 5.66667 94.0736 6.2C93.9003 6.42667 93.7536 6.69333 93.6336 7V14.4L94.8336 14.7V15H89.2336V14.7ZM115.04 15.3C112.907 15.3 111.24 14.6667 110.04 13.4C108.84 12.1333 108.24 10.3333 108.24 8C108.24 6.46667 108.5 5.15333 109.02 4.06C109.553 2.95333 110.293 2.12 111.24 1.56C112.2 0.986666 113.307 0.699999 114.56 0.699999C115.32 0.699999 116.087 0.919999 116.86 1.36C117.153 1.52 117.447 1.73333 117.74 2C117.967 1.65333 118.2 1.38 118.44 1.18C118.68 1.00667 118.813 0.913332 118.84 0.899999H119.34V4.7H118.54C118.367 4.06 118.107 3.48 117.76 2.96C117.44 2.45333 117.04 2.03333 116.56 1.7C116.093 1.36667 115.553 1.2 114.94 1.2C114.02 1.2 113.253 1.73333 112.64 2.8C112.04 3.86667 111.74 5.6 111.74 8C111.74 10.44 112.067 12.1867 112.72 13.24C113.387 14.28 114.293 14.8 115.44 14.8C116.067 14.8 116.66 14.6267 117.22 14.28C117.793 13.92 118.253 13.4467 118.6 12.86C118.96 12.2733 119.14 11.6533 119.14 11H119.64C119.64 11.76 119.433 12.4733 119.02 13.14C118.62 13.7933 118.067 14.32 117.36 14.72C116.667 15.1067 115.893 15.3 115.04 15.3ZM125.048 15.3C123.861 15.3 122.948 15.0467 122.308 14.54C121.668 14.0333 121.348 13.3867 121.348 12.6C121.348 12.08 121.461 11.5667 121.688 11.06C121.781 10.82 121.901 10.6 122.048 10.4C122.594 10.2667 123.188 10.1467 123.828 10.04C125.268 9.8 126.541 9.65333 127.648 9.6V9C127.648 7.52 127.468 6.5 127.108 5.94C126.748 5.38 126.194 5.1 125.448 5.1C125.168 5.1 124.928 5.13333 124.728 5.2L124.448 5.3V8.3L124.188 8.36C123.974 8.38667 123.794 8.4 123.648 8.4C123.194 8.4 122.828 8.26667 122.548 8C122.281 7.72 122.148 7.35333 122.148 6.9C122.148 6.28667 122.454 5.76667 123.068 5.34C123.694 4.91333 124.621 4.7 125.848 4.7C126.888 4.7 127.781 4.88667 128.528 5.26C129.288 5.62 129.861 6.12667 130.248 6.78C130.648 7.42 130.848 8.16 130.848 9V14.4L132.048 14.7V15H130.248C129.448 15 128.828 14.7533 128.388 14.26C128.201 14.06 128.054 13.8067 127.948 13.5C127.761 13.8333 127.541 14.1333 127.288 14.4C126.688 15 125.941 15.3 125.048 15.3ZM125.848 14.6C126.341 14.6 126.788 14.3333 127.188 13.8C127.334 13.6 127.488 13.3333 127.648 13V10.1C127.034 10.1 126.448 10.1333 125.888 10.2C125.474 10.2533 125.194 10.2867 125.048 10.3C124.981 10.4467 124.914 10.6467 124.848 10.9C124.714 11.4067 124.648 11.9067 124.648 12.4C124.648 13.1467 124.761 13.7 124.988 14.06C125.214 14.42 125.501 14.6 125.848 14.6ZM133.257 14.7L134.457 14.4V5.6L133.257 5.3V5H135.057C135.844 5 136.464 5.25333 136.917 5.76C137.09 5.96 137.237 6.20667 137.357 6.5C137.557 6.20667 137.804 5.94 138.097 5.7C138.764 5.16667 139.51 4.9 140.337 4.9C141.044 4.9 141.57 5.06667 141.917 5.4C142.277 5.72 142.457 6.18667 142.457 6.8C142.457 7.25333 142.317 7.62 142.037 7.9C141.77 8.16667 141.41 8.3 140.957 8.3C140.77 8.3 140.584 8.28667 140.397 8.26L140.157 8.2V5.4C139.477 5.4 138.857 5.66667 138.297 6.2C138.03 6.46667 137.817 6.73333 137.657 7V14.4L138.857 14.7V15H133.257V14.7ZM148.75 15.3C147.87 15.3 147.103 15.14 146.45 14.82C145.81 14.5 145.317 14.06 144.97 13.5C144.623 12.94 144.45 12.3067 144.45 11.6V5.5H143.05V5H144.45V4C144.45 2.8 145.05 2.2 146.25 2.2H147.65V5H150.45V5.5H147.65V11.6C147.65 12.8267 147.777 13.6667 148.03 14.12C148.283 14.5733 148.657 14.8 149.15 14.8C149.63 14.8 150.05 14.5667 150.41 14.1C150.77 13.6333 150.95 13 150.95 12.2H151.45C151.45 13.1867 151.203 13.9533 150.71 14.5C150.217 15.0333 149.563 15.3 148.75 15.3ZM152.554 14.7L153.754 14.4V5.6L152.554 5.3V5H155.154C156.354 5 156.954 5.6 156.954 6.8V14.4L158.154 14.7V15H152.554V14.7ZM155.154 3.8C154.754 3.8 154.421 3.66667 154.154 3.4C153.887 3.13333 153.754 2.8 153.754 2.4C153.754 2 153.887 1.66667 154.154 1.4C154.421 1.13333 154.754 0.999999 155.154 0.999999C155.554 0.999999 155.887 1.13333 156.154 1.4C156.421 1.66667 156.554 2 156.554 2.4C156.554 2.8 156.421 3.13333 156.154 3.4C155.887 3.66667 155.554 3.8 155.154 3.8ZM164.751 15.3C163.044 15.3 161.717 14.8333 160.771 13.9C159.824 12.9533 159.351 11.6533 159.351 10C159.351 8.92 159.557 7.98 159.971 7.18C160.384 6.38 160.957 5.76667 161.691 5.34C162.437 4.91333 163.291 4.7 164.251 4.7C165.211 4.7 166.051 4.88 166.771 5.24C167.504 5.6 168.064 6.08667 168.451 6.7C168.851 7.3 169.051 7.96667 169.051 8.7C169.051 9.03333 169.017 9.32 168.951 9.56L168.851 9.9C168.277 10.02 167.657 10.12 166.991 10.2C165.591 10.4 164.177 10.5 162.751 10.5C162.751 12.0467 162.964 13.1533 163.391 13.82C163.817 14.4733 164.404 14.8 165.151 14.8C165.671 14.8 166.151 14.68 166.591 14.44C167.044 14.1867 167.397 13.86 167.651 13.46C167.917 13.0467 168.051 12.6267 168.051 12.2H168.551C168.551 12.7333 168.391 13.24 168.071 13.72C167.751 14.2 167.304 14.5867 166.731 14.88C166.157 15.16 165.497 15.3 164.751 15.3ZM162.751 10C163.604 10 164.297 9.96667 164.831 9.9C165.057 9.88667 165.297 9.85333 165.551 9.8C165.564 9.73333 165.597 9.58667 165.651 9.36C165.717 9.02667 165.751 8.67333 165.751 8.3C165.751 7.19333 165.604 6.38667 165.311 5.88C165.017 5.36 164.664 5.1 164.251 5.1C163.251 5.1 162.751 6.73333 162.751 10ZM170.542 14.7L171.742 14.4V5.6L170.542 5.3V5H172.342C173.129 5 173.749 5.25333 174.202 5.76C174.376 5.96 174.522 6.20667 174.642 6.5C174.842 6.20667 175.089 5.94 175.382 5.7C176.049 5.16667 176.796 4.9 177.622 4.9C178.329 4.9 178.856 5.06667 179.202 5.4C179.562 5.72 179.742 6.18667 179.742 6.8C179.742 7.25333 179.602 7.62 179.322 7.9C179.056 8.16667 178.696 8.3 178.242 8.3C178.056 8.3 177.869 8.28667 177.682 8.26L177.442 8.2V5.4C176.762 5.4 176.142 5.66667 175.582 6.2C175.316 6.46667 175.102 6.73333 174.942 7V14.4L176.142 14.7V15H170.542V14.7Z" fill="black"/>
</svg>
