<svg width="225" height="19" viewBox="0 0 225 19" fill="none" xmlns="http://www.w3.org/2000/svg">
<path d="M0.25 17.625L1.75 17.25V1.25L0.25 0.874998V0.499999H13.625V5H12.875C12.5583 4.75 12.2833 4.43333 12.05 4.05C11.5167 3.15 11.25 2.175 11.25 1.125H5.875V9H8.75C8.86667 8.36667 9.08333 7.775 9.4 7.225C9.53333 6.975 9.69167 6.73333 9.875 6.5H10.625V12.125H9.875C9.69167 11.8917 9.53333 11.65 9.4 11.4C9.08333 10.85 8.86667 10.2583 8.75 9.625H5.875V17.25L7.375 17.625V18H0.25V17.625ZM20.8828 18.375C18.8161 18.375 17.1911 17.7917 16.0078 16.625C14.8411 15.4417 14.2578 13.8167 14.2578 11.75C14.2578 9.68333 14.8411 8.06667 16.0078 6.9C17.1911 5.71667 18.8161 5.125 20.8828 5.125C22.9495 5.125 24.5661 5.71667 25.7328 6.9C26.9161 8.06667 27.5078 9.68333 27.5078 11.75C27.5078 13.8167 26.9161 15.4417 25.7328 16.625C24.5661 17.7917 22.9495 18.375 20.8828 18.375ZM20.8828 17.875C21.5495 17.875 22.1078 17.4083 22.5578 16.475C23.0245 15.5417 23.2578 13.9667 23.2578 11.75C23.2578 9.53333 23.0245 7.95833 22.5578 7.025C22.1078 6.09167 21.5495 5.625 20.8828 5.625C20.2161 5.625 19.6495 6.09167 19.1828 7.025C18.7328 7.95833 18.5078 9.53333 18.5078 11.75C18.5078 13.9667 18.7328 15.5417 19.1828 16.475C19.6495 17.4083 20.2161 17.875 20.8828 17.875ZM29.5166 17.625L31.0166 17.25V6.25L29.5166 5.875V5.5H31.7666C32.7499 5.5 33.5249 5.81667 34.0916 6.45C34.3083 6.7 34.4916 7.00833 34.6416 7.375C34.8749 6.94167 35.1499 6.56667 35.4666 6.25C36.2166 5.5 37.1499 5.125 38.2666 5.125C39.1999 5.125 40.0333 5.325 40.7666 5.725C41.5166 6.10833 42.0999 6.61667 42.5166 7.25C42.9333 7.88333 43.1416 8.55 43.1416 9.25V17.25L44.6416 17.625V18H41.3916C39.8916 18 39.1416 17.25 39.1416 15.75V9.25C39.1416 8.2 38.9499 7.4 38.5666 6.85C38.1999 6.28333 37.7666 6 37.2666 6C36.6333 6 36.0666 6.33333 35.5666 7C35.3499 7.28333 35.1666 7.61667 35.0166 8V17.25L36.5166 17.625V18H29.5166V17.625ZM51.2676 18.375C50.2842 18.375 49.4092 18.125 48.6426 17.625C47.8759 17.1083 47.2676 16.3583 46.8176 15.375C46.3676 14.375 46.1426 13.1667 46.1426 11.75C46.1426 9.61667 46.6342 7.98333 47.6176 6.85C48.6176 5.7 49.9592 5.125 51.6426 5.125C52.4426 5.125 53.1426 5.29167 53.7426 5.625C53.9926 5.74167 54.2509 5.90833 54.5176 6.125V1.25L53.0176 0.874998V0.499999H56.2676C57.7676 0.499999 58.5176 1.25 58.5176 2.75V17.25L60.0176 17.625V18H57.7676C56.7676 18 55.9926 17.6917 55.4426 17.075C55.2092 16.825 55.0259 16.5083 54.8926 16.125C54.6759 16.5417 54.4009 16.9167 54.0676 17.25C53.3176 18 52.3842 18.375 51.2676 18.375ZM52.2676 17.5C52.8842 17.5 53.4426 17.1667 53.9426 16.5C54.1259 16.25 54.3176 15.9167 54.5176 15.5V6.875C54.3342 6.69167 54.1426 6.525 53.9426 6.375C53.4926 6.04167 53.0592 5.875 52.6426 5.875C51.9259 5.875 51.3676 6.29167 50.9676 7.125C50.5842 7.95833 50.3926 9.5 50.3926 11.75C50.3926 13.9 50.5676 15.4 50.9176 16.25C51.2842 17.0833 51.7342 17.5 52.2676 17.5ZM66.5205 18.375C65.0372 18.375 63.8955 18.0583 63.0955 17.425C62.2955 16.7917 61.8955 15.9833 61.8955 15C61.8955 14.35 62.0372 13.7083 62.3205 13.075C62.4372 12.775 62.5872 12.5 62.7705 12.25C63.4538 12.0833 64.1955 11.9333 64.9955 11.8C66.7955 11.5 68.3872 11.3167 69.7705 11.25V10.5C69.7705 8.65 69.5455 7.375 69.0955 6.675C68.6455 5.975 67.9538 5.625 67.0205 5.625C66.6705 5.625 66.3705 5.66667 66.1205 5.75L65.7705 5.875V9.625L65.4455 9.7C65.1788 9.73333 64.9538 9.75 64.7705 9.75C64.2038 9.75 63.7455 9.58333 63.3955 9.25C63.0622 8.9 62.8955 8.44167 62.8955 7.875C62.8955 7.10833 63.2788 6.45833 64.0455 5.925C64.8288 5.39167 65.9872 5.125 67.5205 5.125C68.8205 5.125 69.9372 5.35833 70.8705 5.825C71.8205 6.275 72.5372 6.90833 73.0205 7.725C73.5205 8.525 73.7705 9.45 73.7705 10.5V17.25L75.2705 17.625V18H73.0205C72.0205 18 71.2455 17.6917 70.6955 17.075C70.4622 16.825 70.2788 16.5083 70.1455 16.125C69.9122 16.5417 69.6372 16.9167 69.3205 17.25C68.5705 18 67.6372 18.375 66.5205 18.375ZM67.5205 17.5C68.1372 17.5 68.6955 17.1667 69.1955 16.5C69.3788 16.25 69.5705 15.9167 69.7705 15.5V11.875C69.0038 11.875 68.2705 11.9167 67.5705 12C67.0538 12.0667 66.7038 12.1083 66.5205 12.125C66.4372 12.3083 66.3538 12.5583 66.2705 12.875C66.1038 13.5083 66.0205 14.1333 66.0205 14.75C66.0205 15.6833 66.1622 16.375 66.4455 16.825C66.7288 17.275 67.0872 17.5 67.5205 17.5ZM83.2822 18.375C82.1822 18.375 81.2239 18.175 80.4072 17.775C79.6072 17.375 78.9906 16.825 78.5572 16.125C78.1239 15.425 77.9072 14.6333 77.9072 13.75V6.125H76.1572V5.5H77.9072V4.25C77.9072 2.75 78.6572 2 80.1572 2H81.9072V5.5H85.4072V6.125H81.9072V13.75C81.9072 15.2833 82.0656 16.3333 82.3822 16.9C82.6989 17.4667 83.1656 17.75 83.7822 17.75C84.3822 17.75 84.9072 17.4583 85.3572 16.875C85.8072 16.2917 86.0322 15.5 86.0322 14.5H86.6572C86.6572 15.7333 86.3489 16.6917 85.7322 17.375C85.1156 18.0417 84.2989 18.375 83.2822 18.375ZM88.0371 17.625L89.5371 17.25V6.25L88.0371 5.875V5.5H91.2871C92.7871 5.5 93.5371 6.25 93.5371 7.75V17.25L95.0371 17.625V18H88.0371V17.625ZM91.2871 4C90.7871 4 90.3704 3.83333 90.0371 3.5C89.7038 3.16667 89.5371 2.75 89.5371 2.25C89.5371 1.75 89.7038 1.33333 90.0371 1C90.3704 0.666666 90.7871 0.499999 91.2871 0.499999C91.7871 0.499999 92.2038 0.666666 92.5371 1C92.8704 1.33333 93.0371 1.75 93.0371 2.25C93.0371 2.75 92.8704 3.16667 92.5371 3.5C92.2038 3.83333 91.7871 4 91.2871 4ZM103.158 18.375C101.092 18.375 99.4665 17.7917 98.2832 16.625C97.1165 15.4417 96.5332 13.8167 96.5332 11.75C96.5332 9.68333 97.1165 8.06667 98.2832 6.9C99.4665 5.71667 101.092 5.125 103.158 5.125C105.225 5.125 106.842 5.71667 108.008 6.9C109.192 8.06667 109.783 9.68333 109.783 11.75C109.783 13.8167 109.192 15.4417 108.008 16.625C106.842 17.7917 105.225 18.375 103.158 18.375ZM103.158 17.875C103.825 17.875 104.383 17.4083 104.833 16.475C105.3 15.5417 105.533 13.9667 105.533 11.75C105.533 9.53333 105.3 7.95833 104.833 7.025C104.383 6.09167 103.825 5.625 103.158 5.625C102.492 5.625 101.925 6.09167 101.458 7.025C101.008 7.95833 100.783 9.53333 100.783 11.75C100.783 13.9667 101.008 15.5417 101.458 16.475C101.925 17.4083 102.492 17.875 103.158 17.875ZM111.792 17.625L113.292 17.25V6.25L111.792 5.875V5.5H114.042C115.025 5.5 115.8 5.81667 116.367 6.45C116.584 6.7 116.767 7.00833 116.917 7.375C117.15 6.94167 117.425 6.56667 117.742 6.25C118.492 5.5 119.425 5.125 120.542 5.125C121.475 5.125 122.309 5.325 123.042 5.725C123.792 6.10833 124.375 6.61667 124.792 7.25C125.209 7.88333 125.417 8.55 125.417 9.25V17.25L126.917 17.625V18H123.667C122.167 18 121.417 17.25 121.417 15.75V9.25C121.417 8.2 121.225 7.4 120.842 6.85C120.475 6.28333 120.042 6 119.542 6C118.909 6 118.342 6.33333 117.842 7C117.625 7.28333 117.442 7.61667 117.292 8V17.25L118.792 17.625V18H111.792V17.625ZM144.05 18.375C141.383 18.375 139.3 17.5833 137.8 16C136.3 14.4167 135.55 12.1667 135.55 9.25C135.55 7.33333 135.875 5.69167 136.525 4.325C137.191 2.94167 138.116 1.9 139.3 1.2C140.5 0.483332 141.883 0.124999 143.45 0.124999C144.4 0.124999 145.358 0.399999 146.325 0.949999C146.691 1.15 147.058 1.41667 147.425 1.75C147.708 1.31667 148 0.974999 148.3 0.724999C148.6 0.508332 148.766 0.391665 148.8 0.374999H149.425V5.125H148.425C148.208 4.325 147.883 3.6 147.45 2.95C147.05 2.31667 146.55 1.79167 145.95 1.375C145.366 0.958332 144.691 0.749999 143.925 0.749999C142.775 0.749999 141.816 1.41667 141.05 2.75C140.3 4.08333 139.925 6.25 139.925 9.25C139.925 12.3 140.333 14.4833 141.15 15.8C141.983 17.1 143.116 17.75 144.55 17.75C145.333 17.75 146.075 17.5333 146.775 17.1C147.491 16.65 148.066 16.0583 148.5 15.325C148.95 14.5917 149.175 13.8167 149.175 13H149.8C149.8 13.95 149.541 14.8417 149.025 15.675C148.525 16.4917 147.833 17.15 146.95 17.65C146.083 18.1333 145.116 18.375 144.05 18.375ZM156.56 18.375C155.076 18.375 153.935 18.0583 153.135 17.425C152.335 16.7917 151.935 15.9833 151.935 15C151.935 14.35 152.076 13.7083 152.36 13.075C152.476 12.775 152.626 12.5 152.81 12.25C153.493 12.0833 154.235 11.9333 155.035 11.8C156.835 11.5 158.426 11.3167 159.81 11.25V10.5C159.81 8.65 159.585 7.375 159.135 6.675C158.685 5.975 157.993 5.625 157.06 5.625C156.71 5.625 156.41 5.66667 156.16 5.75L155.81 5.875V9.625L155.485 9.7C155.218 9.73333 154.993 9.75 154.81 9.75C154.243 9.75 153.785 9.58333 153.435 9.25C153.101 8.9 152.935 8.44167 152.935 7.875C152.935 7.10833 153.318 6.45833 154.085 5.925C154.868 5.39167 156.026 5.125 157.56 5.125C158.86 5.125 159.976 5.35833 160.91 5.825C161.86 6.275 162.576 6.90833 163.06 7.725C163.56 8.525 163.81 9.45 163.81 10.5V17.25L165.31 17.625V18H163.06C162.06 18 161.285 17.6917 160.735 17.075C160.501 16.825 160.318 16.5083 160.185 16.125C159.951 16.5417 159.676 16.9167 159.36 17.25C158.61 18 157.676 18.375 156.56 18.375ZM157.56 17.5C158.176 17.5 158.735 17.1667 159.235 16.5C159.418 16.25 159.61 15.9167 159.81 15.5V11.875C159.043 11.875 158.31 11.9167 157.61 12C157.093 12.0667 156.743 12.1083 156.56 12.125C156.476 12.3083 156.393 12.5583 156.31 12.875C156.143 13.5083 156.06 14.1333 156.06 14.75C156.06 15.6833 156.201 16.375 156.485 16.825C156.768 17.275 157.126 17.5 157.56 17.5ZM166.821 17.625L168.321 17.25V6.25L166.821 5.875V5.5H169.071C170.055 5.5 170.83 5.81667 171.396 6.45C171.613 6.7 171.796 7.00833 171.946 7.375C172.196 7.00833 172.505 6.675 172.871 6.375C173.705 5.70833 174.638 5.375 175.671 5.375C176.555 5.375 177.213 5.58333 177.646 6C178.096 6.4 178.321 6.98333 178.321 7.75C178.321 8.31667 178.146 8.775 177.796 9.125C177.463 9.45833 177.013 9.625 176.446 9.625C176.213 9.625 175.98 9.60833 175.746 9.575L175.446 9.5V6C174.596 6 173.821 6.33333 173.121 7C172.788 7.33333 172.521 7.66667 172.321 8V17.25L173.821 17.625V18H166.821V17.625ZM186.188 18.375C185.088 18.375 184.129 18.175 183.313 17.775C182.513 17.375 181.896 16.825 181.463 16.125C181.029 15.425 180.813 14.6333 180.813 13.75V6.125H179.063V5.5H180.813V4.25C180.813 2.75 181.563 2 183.063 2H184.813V5.5H188.313V6.125H184.813V13.75C184.813 15.2833 184.971 16.3333 185.287 16.9C185.604 17.4667 186.071 17.75 186.688 17.75C187.288 17.75 187.813 17.4583 188.263 16.875C188.713 16.2917 188.938 15.5 188.938 14.5H189.563C189.563 15.7333 189.254 16.6917 188.638 17.375C188.021 18.0417 187.204 18.375 186.188 18.375ZM190.942 17.625L192.442 17.25V6.25L190.942 5.875V5.5H194.192C195.692 5.5 196.442 6.25 196.442 7.75V17.25L197.942 17.625V18H190.942V17.625ZM194.192 4C193.692 4 193.276 3.83333 192.942 3.5C192.609 3.16667 192.442 2.75 192.442 2.25C192.442 1.75 192.609 1.33333 192.942 1C193.276 0.666666 193.692 0.499999 194.192 0.499999C194.692 0.499999 195.109 0.666666 195.442 1C195.776 1.33333 195.942 1.75 195.942 2.25C195.942 2.75 195.776 3.16667 195.442 3.5C195.109 3.83333 194.692 4 194.192 4ZM206.188 18.375C204.055 18.375 202.397 17.7917 201.213 16.625C200.03 15.4417 199.438 13.8167 199.438 11.75C199.438 10.4 199.697 9.225 200.213 8.225C200.73 7.225 201.447 6.45833 202.363 5.925C203.297 5.39167 204.363 5.125 205.563 5.125C206.763 5.125 207.813 5.35 208.713 5.8C209.63 6.25 210.33 6.85833 210.813 7.625C211.313 8.375 211.563 9.20833 211.563 10.125C211.563 10.5417 211.522 10.9 211.438 11.2L211.313 11.625C210.597 11.775 209.822 11.9 208.988 12C207.238 12.25 205.472 12.375 203.688 12.375C203.688 14.3083 203.955 15.6917 204.488 16.525C205.022 17.3417 205.755 17.75 206.688 17.75C207.338 17.75 207.938 17.6 208.488 17.3C209.055 16.9833 209.497 16.575 209.813 16.075C210.147 15.5583 210.313 15.0333 210.313 14.5H210.938C210.938 15.1667 210.738 15.8 210.338 16.4C209.938 17 209.38 17.4833 208.663 17.85C207.947 18.2 207.122 18.375 206.188 18.375ZM203.688 11.75C204.755 11.75 205.622 11.7083 206.288 11.625C206.572 11.6083 206.872 11.5667 207.188 11.5C207.205 11.4167 207.247 11.2333 207.313 10.95C207.397 10.5333 207.438 10.0917 207.438 9.625C207.438 8.24167 207.255 7.23333 206.888 6.6C206.522 5.95 206.08 5.625 205.563 5.625C204.313 5.625 203.688 7.66667 203.688 11.75ZM213.428 17.625L214.928 17.25V6.25L213.428 5.875V5.5H215.678C216.661 5.5 217.436 5.81667 218.003 6.45C218.219 6.7 218.403 7.00833 218.553 7.375C218.803 7.00833 219.111 6.675 219.478 6.375C220.311 5.70833 221.244 5.375 222.278 5.375C223.161 5.375 223.819 5.58333 224.253 6C224.703 6.4 224.928 6.98333 224.928 7.75C224.928 8.31667 224.753 8.775 224.403 9.125C224.069 9.45833 223.619 9.625 223.053 9.625C222.819 9.625 222.586 9.60833 222.353 9.575L222.053 9.5V6C221.203 6 220.428 6.33333 219.728 7C219.394 7.33333 219.128 7.66667 218.928 8V17.25L220.428 17.625V18H213.428V17.625Z" fill="black"/>
</svg>
